<?xml version="1.0" encoding="UTF-8" standalone="no"?>
<!-- Created with Inkscape (http://www.inkscape.org/) -->

<svg
   width="32"
   height="32"
   viewBox="0 0 8.4666669 8.4666668"
   version="1.1"
   id="svg3306"
   inkscape:version="1.1.2 (0a00cf5339, 2022-02-04)"
   sodipodi:docname="logo_audax_flat.svg"
   xmlns:inkscape="http://www.inkscape.org/namespaces/inkscape"
   xmlns:sodipodi="http://sodipodi.sourceforge.net/DTD/sodipodi-0.dtd"
   xmlns="http://www.w3.org/2000/svg"
   xmlns:svg="http://www.w3.org/2000/svg">
  <sodipodi:namedview
     id="namedview3308"
     pagecolor="#ffffff"
     bordercolor="#666666"
     borderopacity="1.0"
     inkscape:pageshadow="2"
     inkscape:pageopacity="0.0"
     inkscape:pagecheckerboard="0"
     inkscape:document-units="mm"
     showgrid="false"
     fit-margin-top="0"
     fit-margin-left="0"
     fit-margin-right="0"
     fit-margin-bottom="0"
     units="px"
     inkscape:zoom="8.2142632"
     inkscape:cx="5.4782759"
     inkscape:cy="20.5131"
     inkscape:window-width="1920"
     inkscape:window-height="990"
     inkscape:window-x="0"
     inkscape:window-y="28"
     inkscape:window-maximized="1"
     inkscape:current-layer="layer1" />
  <defs
     id="defs3303" />
  <g
     inkscape:label="Layer 1"
     inkscape:groupmode="layer"
     id="layer1"
     transform="translate(-87.565258,-144.95779)">
    <path
       style="fill:#ffffff;fill-opacity:1;stroke:#ffffff;stroke-width:0.05;stroke-miterlimit:4;stroke-dasharray:none;stroke-opacity:1"
       d="m 90.158857,145.75285 -0.03936,-0.38572 c -0.08091,0.038 -0.157052,0.15086 -0.212509,0.22041 -0.194137,0.24347 -0.318828,0.56159 -0.377883,0.86591 l -0.181967,-0.24403 -0.09355,-0.11021 -0.0079,0.42509 c -0.217012,-0.004 -0.408307,-0.0138 -0.614007,0.0742 -0.279656,0.11959 -0.43955,0.34663 -0.605377,0.58703 -0.189497,0.2747 -0.34885,0.52442 -0.417945,0.85803 -0.04744,0.22905 -0.06318,0.47906 -0.0088,0.70847 0.01473,0.0621 0.03178,0.12283 0.05844,0.18106 0.01687,0.0368 0.04991,0.0776 0.05501,0.11808 0.02278,0.18099 -0.0023,0.38368 -0.0023,0.56677 v 1.2044 1.24376 c 0,0.17585 -0.03755,0.40249 0.05878,0.55891 0.09708,0.15763 0.280536,0.25678 0.445024,0.32951 0.356644,0.15768 0.742186,0.24702 1.125681,0.31134 1.274648,0.2138 2.632801,0.21624 3.904458,-0.0221 0.315782,-0.0592 0.631177,-0.13374 0.928884,-0.25662 0.175702,-0.0725 0.351449,-0.16221 0.478738,-0.30708 0.156508,-0.17813 0.09591,-0.48846 0.09591,-0.70847 v -1.77905 c 0.272966,-0.006 0.371689,-0.41826 0.414063,-0.62975 0.01095,-0.0546 0.01133,-0.12153 0.03139,-0.17318 0.02585,-0.0666 0.09105,-0.12239 0.123023,-0.18893 0.0763,-0.15884 0.111568,-0.34464 0.123549,-0.51954 0.03424,-0.49963 -0.133286,-1.08053 -0.660538,-1.24356 -0.08612,-0.0266 -0.185478,-0.0395 -0.275518,-0.0395 -0.11459,0 -0.229771,0.0197 -0.338491,0.055 0,-0.4613 -0.204496,-0.93146 -0.506051,-1.27525 -0.09187,-0.10472 -0.200333,-0.18515 -0.304754,-0.27551 l 0.283388,-0.0681 0.102115,-0.031 0.01597,-0.16067 c -0.383661,-0.0496 -0.758661,-0.18874 -1.149296,-0.1968 l 0.259771,-0.25978 c -0.480736,0 -0.980799,0.0472 -1.440556,0.1968 l 0.330619,-0.42508 c -0.60442,0.0781 -1.168181,0.36525 -1.597994,0.79506 m 1.149296,-0.51167 -0.244029,0.45657 c 0.280752,-0.10889 0.553545,-0.20411 0.850166,-0.26132 0.167812,-0.0324 0.346686,-0.03 0.511672,-0.0693 -0.03924,0.0841 -0.139325,0.15507 -0.20467,0.22041 0.125109,0.0232 0.258814,0.0128 0.385725,0.025 0.245193,0.0234 0.501178,0.055 0.739957,0.11675 v 0.008 l -0.377851,0.14169 v 0.0157 c 0.29507,0.085 0.545475,0.35109 0.708447,0.59827 0.05656,0.0858 0.120959,0.18399 0.149589,0.28339 h -0.0079 c -0.07721,-0.18545 -0.302777,-0.36666 -0.462073,-0.14945 -0.07241,0.0987 -0.07322,0.21387 -0.07322,0.3305 h -0.0079 c -0.03944,-0.48282 -0.57209,-0.76405 -0.983988,-0.52842 -0.355187,0.20319 -0.530148,0.6533 -0.503101,1.04796 0.02946,0.42966 0.391124,0.87088 0.857337,0.72151 0.07573,-0.0243 0.148425,-0.0617 0.21254,-0.10872 0.348812,-0.25568 0.45051,-0.66046 0.432954,-1.06935 h 0.0079 c 0.03221,0.21805 0.297936,0.48497 0.483894,0.24402 0.111364,-0.1443 0.0808,-0.31756 0.04352,-0.48018 h 0.0079 c 0.139561,0.35983 0.206984,0.75886 0.122613,1.14142 -0.03035,0.13762 -0.08466,0.25677 -0.138356,0.38573 -0.115506,-0.0437 -0.212235,-0.11816 -0.338492,-0.13945 -0.274564,-0.0463 -0.655713,0.13283 -0.759921,0.39922 -0.04896,0.12515 0.03542,0.22321 0.07236,0.33849 0.01145,0.0357 0.04403,0.10334 -0.0056,0.12037 -0.03978,0.0136 -0.124046,0.0389 -0.164538,0.0243 -0.04029,-0.0145 -0.07569,-0.0684 -0.110515,-0.0945 -0.07653,-0.0575 -0.161452,-0.10265 -0.251899,-0.13406 -0.318891,-0.11073 -0.579915,-0.0276 -0.850165,0.15473 l 0.133821,0.0551 c -0.118549,0.0664 -0.337334,-0.0125 -0.464441,-0.0363 -0.06849,-0.0128 -0.120179,-0.0152 -0.141694,-0.0897 l 0.165311,-0.008 c -0.271172,-0.2944 -0.530008,-0.69674 -0.983987,-0.60768 -0.123746,0.0243 -0.202599,0.10854 -0.314875,0.15111 0.04683,-0.10102 0.121022,-0.16739 0.143229,-0.28339 0.06457,-0.33732 -0.146213,-0.78554 -0.497465,-0.85803 l -0.03149,-0.69273 0.228285,0.18105 c 0.02768,-0.34788 0.162287,-0.68721 0.322747,-0.99186 h 0.0079 l 0.06298,0.38573 h 0.0079 l 0.06298,-0.11021 h 0.0079 c -0.01748,0.064 -0.04919,0.12859 -0.04559,0.1968 0.0017,0.0313 0.0083,0.0658 0.02122,0.0945 0.08537,0.19004 0.270761,0.13213 0.417958,0.0709 -0.166389,0.26718 -0.317962,0.54605 -0.256152,0.87378 0.01315,0.0697 0.03893,0.13532 0.0741,0.19679 0.245296,0.42873 0.812238,0.25435 1.103066,-0.0165 0.248405,-0.2313 0.433261,-0.54291 0.448391,-0.88882 0.01506,-0.34444 -0.239582,-0.65361 -0.597958,-0.62905 -0.234621,0.0161 -0.389093,0.14779 -0.58252,0.25907 0.08106,-0.15472 0.11367,-0.44381 -0.133823,-0.46371 -0.0955,-0.008 -0.170843,0.0348 -0.2519,0.078 0.05979,-0.0831 0.162483,-0.15038 0.244029,-0.21155 0.214486,-0.16087 0.475006,-0.35445 0.747829,-0.39459 m -0.70847,0.81868 c -0.02236,-0.008 -0.09973,-0.0653 -0.05791,-0.0934 0.04746,-0.0319 0.06499,0.0674 0.05791,0.0934 m -0.322748,0.063 c 0.02192,0.0912 0.113081,0.14699 0.204669,0.12594 v 0.008 c -0.04703,0.031 -0.106017,0.0682 -0.165309,0.0601 -0.09821,-0.0134 -0.08748,-0.13427 -0.03936,-0.1939 m 1.023346,0.0891 c 0.09769,-0.0122 0.216723,0.0598 0.267889,0.13921 0.03689,0.0573 0.04449,0.14532 -0.0396,0.1626 -0.106854,0.022 -0.225844,-0.0462 -0.286238,-0.13111 -0.04797,-0.0675 -0.03422,-0.1592 0.05795,-0.1707 m -0.346364,0.0526 c -0.105088,0.14918 -0.214202,0.26234 -0.227575,0.45657 -0.01797,0.26091 0.137168,0.55381 0.424375,0.57395 0.124037,0.009 0.223686,-0.0374 0.330619,-0.0938 -0.03369,0.0539 -0.08068,0.0974 -0.125951,0.14158 -0.204747,0.19973 -0.651737,0.39426 -0.862446,0.0946 -0.221231,-0.31465 0.01574,-0.77958 0.250682,-1.01094 0.06248,-0.0615 0.130272,-0.12412 0.210296,-0.16197 m 1.629484,0.30141 c 0.08855,-0.0115 0.204456,0.007 0.275177,0.0649 0.09301,0.0759 0.01526,0.16103 -0.07838,0.17453 -0.09386,0.0135 -0.205583,-0.002 -0.283269,-0.059 -0.111389,-0.0822 -0.01281,-0.16751 0.08647,-0.18044 m -3.345556,0.13154 0.0079,0.1968 c -0.240809,-0.0783 -0.479595,-0.093 -0.724214,-0.0236 0.155706,-0.18839 0.49519,-0.21439 0.716343,-0.17318 m 4.353157,0.0236 c -0.02235,0.0447 -0.06454,0.0527 -0.110205,0.0394 0.02332,-0.0473 0.06265,-0.0506 0.110205,-0.0394 m -1.440556,0.0708 -0.0079,0.008 0.0079,-0.008 m -0.0079,0.0157 c -0.04323,0.18685 -0.05702,0.35669 0.05272,0.52742 0.202419,0.31485 0.669607,0.38184 0.899773,0.0551 h 0.0079 c -0.02592,0.1256 -0.07343,0.24718 -0.144496,0.35423 -0.05056,0.0762 -0.111898,0.14515 -0.186123,0.19881 -0.05325,0.0385 -0.109986,0.0701 -0.173181,0.089 -0.05277,0.0158 -0.102642,0.0198 -0.157438,0.0192 -0.474439,-0.006 -0.540012,-0.65465 -0.427704,-0.99183 0.02828,-0.0849 0.06119,-0.1897 0.128571,-0.2519 m 1.306735,0.0866 c 0.05318,0.10251 0.146544,0.14161 0.251901,0.10233 -5.15e-4,0.0271 -0.0035,0.0526 -0.01133,0.0787 -0.06925,0.2311 -0.297455,-0.0416 -0.240566,-0.18105 m -0.157438,0.0787 v 0.0236 h -0.0079 l 0.0079,-0.0236 m -4.022538,0.307 c -0.594705,0.0123 -0.913029,0.513 -1.01981,1.04697 -0.04519,0.22597 0.01914,0.60711 -0.239693,0.72532 -0.06403,0.0292 -0.12538,-0.0732 -0.152676,-0.11919 -0.0973,-0.16409 -0.107096,-0.35779 -0.107096,-0.54316 0,-0.45847 0.217632,-1.01891 0.621879,-1.26577 0.201049,-0.12278 0.422643,-0.15803 0.653368,-0.11635 0.06068,0.011 0.172567,0.0239 0.215666,0.0725 0.0337,0.038 0.02446,0.15015 0.02836,0.19965 m 0,0.16 c 0.07233,-0.005 0.19716,0.003 0.259773,0.0426 0.182816,0.11521 0.270305,0.44732 0.224349,0.64756 -0.05292,0.23062 -0.265133,0.24779 -0.404033,0.4015 -0.155934,0.17255 -0.207471,0.42247 -0.242061,0.64546 -0.03121,0.20124 -0.04345,0.40883 -0.09571,0.60614 -0.0155,0.0585 -0.0446,0.17552 -0.120196,0.17926 -0.08143,0.004 -0.16882,-0.083 -0.215532,-0.13991 -0.140427,-0.17118 -0.202025,-0.3925 -0.242549,-0.60613 -0.02211,-0.11657 -0.02994,-0.23589 -0.02994,-0.35424 0,-0.48591 0.105972,-1.18003 0.629752,-1.37904 0.07618,-0.029 0.15569,-0.0372 0.236156,-0.0432 m 5.951153,1.50097 h -0.0079 c -0.02741,-0.14765 -0.03249,-0.29464 -0.07421,-0.44082 -0.08515,-0.29838 -0.287167,-0.57006 -0.594903,-0.65788 -0.130431,-0.0372 -0.252957,-0.027 -0.385723,-0.027 0.0037,-0.0464 -0.0065,-0.13887 0.02313,-0.17603 0.03855,-0.0483 0.140891,-0.0554 0.197286,-0.0634 0.228442,-0.0327 0.466221,0.0249 0.629633,0.19224 0.303603,0.31084 0.26322,0.78139 0.21266,1.17291 m -1.023347,-0.95812 c 0.07513,-0.009 0.161673,-0.008 0.236157,0.005 0.593249,0.1 0.645959,0.91647 0.577962,1.38607 -0.02503,0.17282 -0.0611,0.34501 -0.136262,0.50381 -0.02404,0.0508 -0.07076,0.1417 -0.134696,0.1464 -0.0634,0.005 -0.109159,-0.0489 -0.135514,-0.0992 -0.05884,-0.11224 -0.06903,-0.24733 -0.09277,-0.36998 -0.05206,-0.26895 -0.110789,-0.52934 -0.260197,-0.76358 -0.04765,-0.0747 -0.107868,-0.1509 -0.172875,-0.2112 -0.03981,-0.0369 -0.104837,-0.0792 -0.119274,-0.13516 -0.01082,-0.042 0.03685,-0.0976 0.05439,-0.13382 0.04657,-0.0962 0.06752,-0.31449 0.183084,-0.32837 m -1.330351,1.98934 c -0.01324,-0.0816 0.04352,-0.17484 0.06814,-0.2519 0.04692,-0.14688 0.0859,-0.30226 0.09647,-0.45657 0.0091,-0.13241 -0.0036,-0.2672 -0.04452,-0.3936 -0.02484,-0.0766 -0.08932,-0.1524 -0.07926,-0.23615 0.01198,-0.0998 0.11582,-0.1784 0.195333,-0.22668 0.250618,-0.15216 0.555583,-0.0939 0.715824,0.1637 0.119511,0.19214 0.121676,0.43766 0.07923,0.65337 -0.08172,0.41532 -0.29988,0.8038 -0.598256,1.10206 -0.143772,0.14372 -0.412456,0.3656 -0.637277,0.32945 -0.06561,-0.0105 -0.0323,-0.1146 -0.02059,-0.15626 0.0387,-0.13776 0.09911,-0.26909 0.152486,-0.40147 0.01511,-0.0375 0.02957,-0.11688 0.07243,-0.12595 m -2.133283,-1.23589 h -0.06297 l 0.12595,0.25977 -0.275516,-0.11808 c 0.08533,0.12897 0.177322,0.27285 0.21254,0.42509 L 90.47377,149.185 c 0.09515,0.14424 0.245421,0.35175 0.259771,0.52742 l -0.251901,-0.0945 c 0.05027,0.1477 0.08669,0.25161 0.08659,0.40934 l -0.08628,-0.0471 -0.18136,0.17302 -0.07872,-0.0403 -0.165311,-0.15641 h -0.0079 l -0.118077,0.0945 -0.141696,-0.38573 h -0.0079 l -0.07085,0.0945 0.02361,-0.31488 -0.09446,0.0472 0.118079,-0.3621 -0.157438,0.0551 0.118079,-0.24403 -0.09446,-0.0394 c 0.207306,-0.29457 0.631193,-0.62221 0.968244,-0.32138 0.05199,0.0464 0.103185,0.0978 0.141694,0.15607 m -1.346095,0.11808 c 0.03367,-0.0989 0.08935,-0.19888 0.173182,-0.26348 0.01767,-0.0136 0.0822,-0.0627 0.104287,-0.0379 0.02137,0.0239 -0.04017,0.0733 -0.05372,0.0889 -0.06365,0.0733 -0.134782,0.1702 -0.223751,0.21254 m 4.746752,0.0709 c 0.04618,0.11092 0.09806,0.21397 0.130484,0.33062 0.0088,0.0317 0.03511,0.0908 0.02189,0.12288 -0.02338,0.0567 -0.198554,0.10783 -0.254712,0.12114 l 0.08325,-0.36997 0.01909,-0.20467 m -1.550763,0.71634 -0.11808,-0.0472 c 8.59e-4,0.1081 0.02775,0.22539 -0.0079,0.33062 l -0.110207,-0.12595 c -0.02463,0.10743 -0.04866,0.2458 -0.110207,0.33849 l -0.04723,-0.0787 -0.102335,0.18893 h -0.0079 v -0.0551 c -0.114149,0.0988 -0.245595,0.20144 -0.385723,0.25977 l -0.03936,-0.14169 -0.314875,0.0551 -0.02362,-0.24402 -0.07085,0.008 c 0.04418,-0.13321 0.225144,-0.25663 0.322747,-0.35424 l -0.20467,0.008 0.118079,-0.10715 0.20467,-0.18411 -0.244029,-0.008 v -0.008 c 0.121312,-0.0869 0.256174,-0.17693 0.393593,-0.23615 v -0.008 l -0.259771,-0.0315 0.157438,-0.0808 0.236157,-0.12382 -0.125952,-0.0472 c 0.06512,-0.0273 0.168767,-0.007 0.236157,0.006 0.13753,0.027 0.310601,0.10054 0.389282,0.22196 0.08816,0.13605 0.09479,0.30836 0.11452,0.46444 m -3.109397,-0.62188 -0.181054,0.47232 0.181054,-0.063 -0.02362,0.32275 -0.220413,-0.0315 0.118078,-0.74783 0.125951,0.0472 m -1.251632,0.0787 0.07085,0.34637 c -0.110145,-0.0459 -0.252248,-0.11329 -0.322747,-0.21255 0.109821,-0.005 0.168295,-0.0749 0.2519,-0.13382 m 3.085782,0.11021 -0.08659,0.12595 0.12595,0.0157 c -0.08058,0.1 -0.161664,0.17693 -0.21254,0.29913 h 0.118077 l -0.133514,0.15744 -0.058,0.074 -0.170591,0.005 c 0.0098,-0.12424 -0.0035,-0.2095 -0.03149,-0.33061 l 0.125951,0.0551 -0.102335,-0.38572 0.157437,0.0708 -0.02362,-0.13382 0.291259,0.0472 m 1.527148,-0.0157 -0.06298,0.39359 h -0.0079 l -0.06297,-0.36998 0.133821,-0.0236 m -4.935677,0.21254 c 0.08895,0.0554 0.171677,0.11879 0.267645,0.16288 0.06046,0.0278 0.159261,0.0491 0.207526,0.0945 0.04174,0.0393 0.06398,0.11223 0.09728,0.15981 0.08339,0.11913 0.194806,0.22232 0.332816,0.27371 0.116788,0.0435 0.238267,0.0283 0.316757,-0.0769 0.02562,-0.0343 0.04011,-0.11009 0.07447,-0.13329 0.02204,-0.0149 0.06534,0.003 0.08896,0.007 0.07027,0.0137 0.141812,0.0234 0.212541,0.0347 0.02669,0.004 0.068,0.002 0.08708,0.0248 0.03802,0.0448 0.03997,0.15155 0.05461,0.20811 l 0.110206,-0.13383 c 0.05553,0.14313 0.134342,0.22238 0.259774,0.30701 0.0044,-0.0211 0.0095,-0.0421 0.01475,-0.063 0.04175,-0.16553 0.176448,0.0727 0.276515,0.0776 0.09054,0.004 0.167144,-0.0875 0.220414,-0.14843 h 0.0079 l 0.157436,0.11021 0.04723,-0.26764 0.354235,0.008 -0.09446,0.26764 0.141694,-0.0157 c 0.01394,0.0441 0.01655,0.0908 0.03517,0.13382 0.06686,0.1543 0.217988,0.0808 0.342679,0.0709 l -0.02361,0.14169 c 0.141316,-0.006 0.241563,-0.0489 0.369978,-0.10233 l -0.01574,0.14169 0.322749,-0.28339 h 0.0079 l 0.0551,0.0787 0.173182,-0.307 c 0.24776,0.12074 -0.138648,0.44402 0.118078,0.59649 0.115466,0.0686 0.291056,0.0261 0.409339,-0.014 0.352811,-0.11949 0.627791,-0.41421 0.829171,-0.71631 0.04932,-0.074 0.09181,-0.15041 0.134452,-0.22828 0.01751,-0.032 0.02882,-0.0792 0.05687,-0.10358 0.03299,-0.0286 0.09601,-0.0391 0.13668,-0.0543 0.08171,-0.0306 0.160689,-0.0779 0.244029,-0.10194 0.01833,0.14432 0.04646,0.30102 0.10934,0.43296 0.02903,0.0609 0.0871,0.096 0.118725,0.15181 0.0268,0.0473 0.01145,0.15568 -0.0102,0.20242 -0.06596,0.14233 -0.237724,0.23182 -0.375301,0.29126 -0.313089,0.13527 -0.64155,0.21775 -0.976115,0.28033 -0.786828,0.14717 -1.602395,0.18791 -2.400927,0.15293 -0.62543,-0.0274 -1.254607,-0.0729 -1.865639,-0.22366 -0.257332,-0.0635 -0.512539,-0.13875 -0.74783,-0.26298 -0.105982,-0.0559 -0.225637,-0.13003 -0.27274,-0.24575 -0.06105,-0.14998 -0.01852,-0.38307 -0.01852,-0.54316 0,-0.10845 -0.0339,-0.28618 0.0079,-0.38572 m 1.645226,0.35423 -0.0079,0.008 0.0079,-0.008 m 3.085782,0.21254 -0.0079,0.0394 h -0.0079 l 0.01574,-0.0394 m -0.01836,0.0525 -0.0026,0.005 0.0026,-0.005 m -4.712644,0.56939 c 0.627831,0.39098 1.366718,0.51114 2.093924,0.58385 0.823565,0.0824 1.656081,0.0824 2.479646,0 0.52008,-0.052 1.05747,-0.12849 1.550763,-0.30875 0.197144,-0.072 0.358628,-0.1832 0.543161,-0.2751 v 0.56678 c 0,0.089 0.01545,0.19019 -0.03775,0.26764 -0.0898,0.13069 -0.253333,0.21025 -0.3952,0.27096 -0.308248,0.13193 -0.639253,0.20834 -0.968243,0.26767 -0.637332,0.11495 -1.282332,0.1541 -1.928614,0.1541 -0.71128,0 -1.418523,-0.0491 -2.117539,-0.18893 -0.292567,-0.0585 -0.576231,-0.14142 -0.850165,-0.25977 -0.128294,-0.0554 -0.290559,-0.14501 -0.354266,-0.27551 -0.06084,-0.12464 -0.02358,-0.32881 -0.02358,-0.46445 0,-0.0961 -0.02918,-0.25018 0.0079,-0.33849 m 0,1.04696 c 0.582237,0.36258 1.259936,0.49561 1.936486,0.56809 0.852204,0.0913 1.71264,0.10624 2.566238,0.0237 0.610377,-0.0591 1.252535,-0.14366 1.818406,-0.39385 0.123905,-0.0548 0.229821,-0.13149 0.346364,-0.19789 v 0.62188 c 0,0.0963 0.01808,0.20726 -0.0387,0.29126 -0.08724,0.12907 -0.247492,0.20681 -0.386384,0.26647 -0.304903,0.13091 -0.627775,0.20506 -0.952499,0.26725 -0.63723,0.12217 -1.289377,0.15901 -1.936487,0.15901 -0.729094,0 -1.456763,-0.0486 -2.172642,-0.1968 -0.297573,-0.0616 -0.603837,-0.14295 -0.87378,-0.28511 -0.108653,-0.0572 -0.235079,-0.12631 -0.290197,-0.2423 -0.06655,-0.14004 -0.02468,-0.36731 -0.02468,-0.51955 0,-0.10226 -0.03154,-0.26818 0.0079,-0.36211 z"
       id="path3517" />
  </g>
</svg>
