<?xml version="1.0" encoding="UTF-8" standalone="no"?>
<svg
   width="32"
   height="35"
   viewBox="0 0 8.4666664 9.2604161"
   version="1.1"
   id="svg896"
   xmlns="http://www.w3.org/2000/svg"
   xmlns:svg="http://www.w3.org/2000/svg">
  <defs
     id="defs893" />
  <g
     id="layer1">
    <g
       transform="matrix(0.00763326,0,0,0.00763326,-0.31889044,1.4332642)"
       id="g_symbol"
       class="logo_pgmanage"
       style="stroke-width:1.67969">
      <g
         id="g_gearstack"
         transform="matrix(1,0,0,0.89246526,0,102.34862)"
         style="stroke-width:1.67969">
        <path
           style="fill:#ffffff;fill-opacity:1;stroke:#ffffff;stroke-width:9.02593;stroke-miterlimit:4;stroke-dasharray:none;stroke-opacity:1"
           d="M 542.81432,1025.1632 C 286.91971,1009.8258 85.266703,897.24463 50.679093,750.40756 c -4.98648,-21.16857 -5.083,-59.28489 -0.20496,-80.967 9.73266,-43.26048 38.64583,-90.21813 77.894207,-126.50665 l 23.48819,-21.71739 -0.15729,-29.18048 c -0.13982,-26.00168 -0.064,-40.83721 0.36265,-71.00479 0.34715,-24.52207 0.35469,-36.36938 0.0616,-93.78737 -0.30744,-60.20852 -0.32253,-85.48051 -0.0616,-103.92654 0.32609,-23.04688 0.33721,-35.91784 0.0815,-93.78747 -0.15132,-34.156239 -0.20336,-68.946088 -0.11637,-77.311108 0.0874,-8.364723 0.0158,-17.490074 -0.15928,-20.278444 -0.17477,-2.78798 -0.36941,-35.2970052 -0.43256,-72.241625 -0.0632,-36.944227 -0.68874,-71.863873 -1.391,-77.598303 -1.21664,-9.9416 -0.44725,-11.64875 16.55223,-36.71776 9.80534,-14.46061 21.24875,-28.87464 25.4293,-32.03165 10.20096,-7.70262 21.34169,-7.56036 83.10473,1.06207 43.80072,6.11504 51.8095,6.61394 63.19771,3.93718 7.17269,-1.68574 13.82106,-3.93915 14.77475,-5.00749 0.95368,-1.06855 2.42849,-21.90141 3.27692,-46.29487 0.84882,-24.39376 2.45788,-46.34438 3.57601,-48.77955 3.61733,-7.87899 18.09735,-13.85374 56.17477,-23.17922 70.35452,-17.23061 69.30312,-17.44508 111.19806,22.68424 26.91525,25.78082 31.52004,29.21782 42.62462,31.81668 15.74432,3.68488 55.38632,1.39895 66.57393,-3.83855 4.55552,-2.13257 18.98907,-15.03643 32.07451,-28.6753 27.7021,-28.87336 31.2233,-31.27768 48.16598,-32.88599 12.22272,-1.16061 69.67411,10.63356 101.07338,20.74866 19.46809,6.27184 19.67265,6.90023 19.22103,59.1273 l -0.39164,45.35729 6.33697,2.933 c 8.51246,3.93983 29.90578,7.69653 36.89139,6.47796 87.90606,-15.33285 99.56636,-16.63807 112.11846,-12.54959 11.44841,3.7293 13.86821,6.03193 33.80111,32.16506 24.847,32.57574 23.0035,22.67305 18.0905,97.168488 -4.3294,65.649195 -4.3302,69.9445897 -0.012,68.0887865 3.6793,-1.5819861 3.775,1.7413446 3.3936,118.1750155 -0.1346,41.04529 -0.8631,53.10433 -3.4786,57.57726 -4.4399,7.5921 -4.3855,21.04498 0.084,21.04498 3.6798,0 3.9259,8.61328 3.3977,118.90099 -0.1946,40.6799 -0.9466,52.8474 -3.5195,56.9632 -4.5624,7.29912 -4.4686,25.44127 0.1218,23.46757 3.5764,-1.53758 4.2696,17.9655 3.4184,96.16349 l -0.3333,30.6101 12.7411,11.01358 c 7.0074,6.05777 21.5832,21.51087 32.3906,34.34095 64.053,76.03929 72.1431,162.5524 22.9055,244.94498 -20.892,34.96022 -66.0813,77.7885 -113.6232,107.68714 -114.15982,71.79349 -291.1275,110.60281 -458.57898,100.56681 z m 132.5767,-13.5496 c 171.2555,-15.02311 317.45867,-73.87687 398.09278,-160.25217 64.0684,-68.63033 79.5458,-144.85187 44.7034,-220.15401 -10.557,-22.8161 -33.4347,-54.19705 -53.2714,-73.07173 l -16.4967,-15.69626 -1.1865,14.70603 c -0.6521,8.08825 -2.434,17.19729 -3.9589,20.24268 -4.0951,8.17835 -3.6765,21.30789 0.6213,19.46014 2.975,-1.27909 3.3933,9.13282 3.3933,84.4949 v 85.95427 l -15.7341,27.08359 c -9.6444,16.60112 -18.6189,29.05423 -23.1874,32.17546 -10.00751,6.83658 -24.93321,6.5828 -74.1665,-1.26002 -45.64453,-7.27112 -62.53676,-7.8109 -78.47809,-2.50621 l -11.41045,3.79679 -1.64998,48.56478 c -0.9076,26.71064 -2.0853,49.83585 -2.61716,51.38958 -0.53225,1.55364 -3.08507,4.3065 -5.67285,6.11746 -6.48235,4.53558 -94.51953,25.76364 -106.50909,25.68185 -14.48639,-0.0994 -23.78252,-6.13753 -53.72245,-34.89821 -26.88347,-25.82455 -27.34026,-26.13078 -44.37905,-29.78383 -20.28355,-4.34855 -47.12968,-4.78585 -60.59366,-0.9871 -7.22035,2.03727 -16.25194,9.30378 -36.63161,29.47249 -14.87643,14.7227 -30.102,28.90045 -33.83452,31.50611 -10.18388,7.10955 -28.6947,6.01131 -71.25973,-4.22857 -51.4155,-12.36898 -53.43845,-13.07802 -58.69662,-20.56763 -4.30052,-6.12603 -4.64568,-10.0531 -4.64568,-52.88787 v -46.27049 l -14.82519,-4.49642 -14.82599,-4.4967 -58.47656,9.34376 c -74.85959,11.96216 -71.74154,12.78961 -101.89518,-27.03947 l -20.73914,-27.39355 0.0724,-71.46351 c 0.0397,-39.30473 -0.73403,-73.72006 -1.71949,-76.47817 -0.98506,-2.75821 -1.0216,-8.83857 -0.081,-13.51202 0.94056,-4.67346 1.13917,-23.76144 0.4413,-42.41771 l -1.26948,-33.92065 -7.01698,5.53302 c -14.71167,11.59983 -48.809137,52.12922 -59.785827,71.06305 -40.71684,70.23343 -35.56512,143.66425 14.94435,213.00628 50.790697,69.72815 156.448587,130.51804 280.174807,161.19754 48.35862,11.99112 87.49461,18.26162 149.01255,23.87392 22.22467,2.0274 120.84849,1.4373 147.28114,-0.8814 z M 511.81981,920.79995 c 39.24758,-38.63832 39.71907,-39.0156 53.23389,-42.57973 24.19837,-6.38149 73.52537,-2.2648 89.92586,7.50476 3.63084,2.16272 17.79906,14.91175 31.48547,28.33163 26.41676,25.90204 31.14742,29.14171 42.54953,29.14171 9.78508,0 92.4795,-20.13112 96.01103,-23.3727 2.0881,-1.91691 2.82769,-15.64626 2.82769,-52.47603 v -49.87992 l 14.13881,-5.80351 c 21.9538,-9.01099 43.68515,-9.43601 91.52618,-1.79017 43.97152,7.02688 59.63892,8.02066 66.03132,4.18722 2.19711,-1.31779 10.19981,-13.00948 17.78411,-25.98173 l 13.7892,-23.58586 0.2658,-60.20166 c 0.1465,-33.11049 -0.1192,-60.20125 -0.5899,-60.20125 -0.4711,0 -4.6544,6.17969 -9.297,13.7321 -8.8945,14.47043 -19.9334,21.75522 -32.96861,21.75522 -3.6479,0 -28.8075,-3.45175 -55.91055,-7.67041 -48.45914,-7.54288 -58.17948,-7.80501 -78.28747,-2.10958 -10.90042,3.08715 -12.90868,8.75987 -12.90868,36.46125 0,18.27291 -0.66333,21.97479 -4.69295,26.18117 l -4.69295,4.89912 4.82402,10.59505 c 6.09826,13.39403 5.27922,24.71316 -2.22472,30.73663 -3.31585,2.66213 -26.17089,9.44506 -55.2509,16.39816 -65.06735,15.55764 -63.00667,15.98266 -100.90933,-20.81105 -15.12705,-14.68422 -30.71647,-28.18671 -34.64321,-30.00547 -13.205,-6.11613 -47.32351,-9.59007 -64.63202,-6.58084 -8.67132,1.50781 -16.30198,2.74111 -16.95777,2.74111 -0.65578,0 -15.07343,13.76108 -32.03876,30.58022 -16.96531,16.81915 -33.35152,31.64789 -36.41354,32.95233 -3.06205,1.30443 -9.95152,2.3717 -15.30978,2.3717 -9.41688,0 -98.43992,-20.87108 -103.25998,-24.20915 -1.30758,-0.90564 -3.68603,0.3591 -5.28557,2.81019 -2.55083,3.90888 -3.06878,2.92788 -4.21511,-7.98412 -1.0232,-9.74421 -0.1843,-15.2228 3.87154,-25.27483 l 5.17793,-12.83402 -5.33721,-6.95182 c -4.78232,-6.2301 -5.33682,-9.40732 -5.33682,-30.58376 0,-23.40165 -0.0603,-23.65936 -6.22098,-26.47278 -15.97668,-7.29706 -25.76773,-7.13613 -76.3495,1.25443 -75.61586,12.54271 -78.28109,12.13724 -98.42919,-14.9714 -6.8307,-9.19089 -13.04453,-16.77749 -13.80875,-16.85972 -0.76382,-0.0825 -0.97552,28.61606 -0.47029,63.77443 l 0.91874,63.92417 18.21888,23.68126 c 10.02063,13.02431 20.80627,24.78301 23.9684,26.13038 4.19605,1.78782 21.09345,-0.0403 62.55981,-6.76161 62.26747,-10.09526 69.91163,-9.96813 93.83276,1.56272 l 11.61579,5.59896 v 48.96671 c 0,34.00495 0.79044,49.51405 2.58659,50.75807 6.23449,4.31723 91.76968,23.4962 99.14335,22.23019 5.71496,-0.98146 13.91203,-7.31717 30.15484,-23.30777 z m 8.12995,-161.13322 c 33.94771,-33.71894 34.51293,-34.04699 65.84666,-38.23107 13.92393,-1.85935 54.06482,4.01214 66.16798,9.67859 4.16229,1.94865 19.98287,15.6216 35.15641,30.38402 19.25042,18.72888 29.90459,27.32793 35.25134,28.45198 7.27118,1.52845 87.638,-15.87223 100.38661,-21.73526 l 5.08498,-2.3384 -4.9702,-11.46356 c -2.73393,-6.30485 -6.31591,-11.46336 -7.95993,-11.46336 -1.64403,0 -19.5106,3.99112 -39.70358,8.86873 -39.8724,9.63183 -54.39492,10.80835 -65.62981,5.31698 -4.00379,-1.957 -18.98667,-15.06503 -33.2951,-29.1292 -29.83548,-29.32668 -36.33292,-32.5612 -70.1285,-34.91296 -37.04391,-2.57782 -41.36509,-0.63074 -76.91551,34.6527 -40.42251,40.11989 -38.26054,39.54229 -95.82752,25.59022 -23.46633,-5.68718 -43.39517,-9.83549 -44.2861,-9.2183 -2.98458,2.06674 -9.92014,21.67416 -8.3067,23.48261 2.79115,3.12722 85.77274,23.1013 96.84039,23.30988 10.47383,0.19748 11.09943,-0.26449 42.28858,-31.2436 z m -22.59964,-22.17305 c 4.89948,-4.66707 19.19918,-18.61453 31.777,-30.99444 20.79791,-20.47023 24.14356,-22.8157 36.94143,-25.89243 7.73988,-1.86091 20.81064,-3.42354 29.04584,-3.47276 16.72818,-0.0993 51.93186,6.11534 59.36669,10.48009 2.66047,1.56184 14.95508,12.6553 27.32118,24.65205 32.91063,31.9275 34.69287,33.21847 45.86181,33.21847 8.69597,0 86.83922,-17.61554 96.42254,-21.73615 3.33929,-1.4359 3.76667,-7.33508 3.76667,-51.97909 v -50.35968 l 6.67459,-3.86723 c 9.59323,-5.55846 33.31218,-11.39065 46.50409,-11.43427 6.23012,-0.0197 29.64403,2.88603 52.03071,6.4593 48.13752,7.68308 62.63812,8.4894 67.71733,3.76633 5.2496,-4.88203 29.1905,-46.11409 29.4988,-50.80503 0.1414,-2.14809 0.7177,-5.02655 1.281,-6.39622 0.5633,-1.36949 0.5149,-27.56265 -0.1072,-58.20643 l -1.1309,-55.71635 -7.7829,13.59819 c -8.45,14.76488 -20.2865,22.90197 -33.46011,23.00247 -4.0201,0.0324 -26.4161,-2.8933 -49.7687,-6.49713 -47.89873,-7.39237 -65.07576,-8.14857 -81.96562,-3.60854 -14.30366,3.84483 -15.91749,7.50986 -15.91749,36.14468 0,17.34143 -0.73919,21.46519 -4.69295,26.18079 l -4.69334,5.59737 4.82402,10.59534 c 6.08713,13.36907 5.27206,24.67661 -2.22433,30.86622 -5.31577,4.38903 -94.84445,27.51657 -106.51863,27.51657 -13.01195,0 -23.7825,-6.93669 -50.01098,-32.20829 -14.95985,-14.41414 -29.10224,-27.34827 -31.42747,-28.7424 -2.32522,-1.39463 -14.54516,-4.26396 -27.15515,-6.37668 -18.6729,-3.1284 -26.23405,-3.29955 -40.74463,-0.92185 l -17.81694,2.91903 -30.74944,30.27074 c -16.91249,16.64878 -33.27883,31.34843 -36.36987,32.66515 -10.17116,4.33272 -26.24475,2.35342 -70.93004,-8.73561 -24.26233,-6.02092 -45.80263,-11.76518 -47.86768,-12.76573 -2.71052,-1.31318 -4.25246,-0.18195 -5.54495,4.06776 -1.46131,4.80372 -2.09764,3.32175 -3.45844,-8.05495 -1.41207,-11.80566 -0.84089,-15.98256 3.73012,-27.26632 l 5.39798,-13.32457 -5.537,-6.20475 c -5.09849,-5.71252 -5.5378,-8.11478 -5.5378,-30.30218 v -24.09743 l -11.72146,-3.90015 c -16.14945,-5.37376 -23.92192,-5.00317 -77.63562,3.70394 -69.84689,11.32189 -69.58513,11.36668 -91.88568,-15.79049 l -14.97017,-18.23037 0.92429,64.53791 0.9243,64.53742 17.43917,23.30193 c 11.48471,15.34552 19.93521,24.27871 24.7497,26.16261 6.00809,2.35146 17.27672,1.20786 63.24538,-6.41844 61.1696,-10.14782 69.32814,-9.98689 94.02023,1.85375 l 10.74553,5.15289 v 48.96673 c 0,34.95146 0.76581,49.49704 2.67556,50.81927 5.88972,4.07886 89.47385,23.54106 97.38773,22.67677 5.4659,-0.59734 11.58481,-3.91478 17.3518,-9.40781 z M 276.13645,661.56884 c 46.68363,-7.59692 66.96599,-8.40638 82.87315,-3.30751 4.80973,1.54161 5.08976,0.91036 5.08976,-11.46719 0,-12.39357 -0.39601,-13.28164 -7.35221,-16.48834 -15.54057,-7.16433 -24.88873,-6.89386 -81.73875,2.36256 -53.53735,8.71704 -56.59581,8.9546 -67.90139,5.27207 -9.63176,-3.13754 -13.49813,-6.21221 -20.73954,-16.49384 -9.33863,-13.25903 -12.39073,-15.0162 -16.4847,-9.48916 -1.91015,2.57909 1.18724,8.27414 13.44213,24.71394 22.00304,29.51738 25.55761,32.76919 35.81696,32.76919 4.74141,0 30.38878,-3.54213 56.99459,-7.87172 z m 721.84194,0.13499 c 4.14841,-2.12893 29.96491,-41.84325 33.09721,-50.91418 2.0576,-5.95804 -6.6213,-1.08397 -11.9137,6.69048 -12.8213,18.83499 -24.03941,20.09728 -87.90564,9.89081 -42.37439,-6.77194 -65.04155,-7.03887 -80.21509,-0.94377 -7.08649,2.84633 -7.35222,3.45763 -7.35222,16.92122 v 13.96799 l 6.22099,-1.79931 c 23.2562,-6.72585 38.32171,-6.16063 97.84095,3.6725 33.7726,5.57959 43.3249,6.05776 50.2275,2.51426 z M 520.11062,562.05774 c 29.68454,-29.291 32.61113,-31.52241 44.76474,-34.13207 21.97682,-4.71953 28.12194,-5.04208 49.1987,-2.58461 35.20486,4.1047 39.64083,6.41686 71.904,37.47919 20.05198,19.30569 31.25905,28.33654 36.54264,29.44703 7.50355,1.57727 92.52359,-16.95374 101.37206,-22.09514 3.67691,-2.1366 3.5498,-3.19984 -1.79615,-15.02062 -4.28422,-9.47365 -6.73853,-12.3808 -9.61269,-11.38741 -10.55844,3.64862 -78.43282,19.21353 -83.73271,19.20115 -14.50345,-0.0354 -23.33247,-5.66811 -51.81666,-33.06746 -30.94169,-29.76359 -33.12432,-30.98069 -62.96415,-35.10484 -19.62103,-2.71213 -49.16853,0.31626 -55.31524,5.66852 -1.86367,1.62255 -15.73638,15.18743 -30.82808,30.1441 -15.09212,14.95626 -30.17589,28.35913 -33.51994,29.78382 -10.29787,4.38667 -24.78028,2.94242 -62.95343,-6.27853 -20.19298,-4.8781 -37.79939,-8.8703 -39.12565,-8.87197 -3.17684,0 -12.89996,19.49797 -11.71549,23.49852 1.16459,3.93306 80.11814,23.95881 96.04637,24.36163 l 11.79095,0.29799 z m 0.21608,-45.66371 c 29.30005,-28.81383 32.93803,-31.60859 44.54071,-34.21942 29.08755,-6.54537 80.7076,-0.92186 94.4512,10.28998 3.73252,3.0449 16.96651,15.43453 29.40888,27.53287 25.0051,24.31359 29.78067,27.77319 38.3368,27.77319 7.31608,0 88.81054,-19.36829 95.69923,-22.74457 5.03375,-2.4671 5.08976,-3.05049 5.08976,-53.06276 v -50.56816 l 13.00798,-5.56721 c 20.62276,-8.82669 48.08654,-9.21554 97.18153,-1.37508 22.6553,3.61798 45.3058,6.57838 50.3344,6.57838 11.1598,0 14.34581,-3.28363 30.62981,-31.56771 l 12.1524,-21.10766 0.213,-61.65896 0.2125,-61.65935 -6.7259,11.3771 c -16.7691,28.36768 -22.3796,29.90772 -77.62961,21.30789 -61.1053,-9.51138 -70.65565,-10.07974 -87.58363,-5.21529 -8.0207,2.30499 -15.11236,4.78437 -15.76019,5.50964 -0.64744,0.72565 -1.57094,12.95397 -2.05235,27.17417 -0.72172,21.32655 -1.65594,26.80681 -5.33363,31.28888 -4.43954,5.40992 -4.43834,5.47978 0.23395,15.74156 6.60309,14.50217 6.16537,24.5201 -1.31037,30.00862 -7.70733,5.65858 -90.91054,26.00797 -106.61436,26.07556 -6.57212,0.0275 -15.22517,-1.52283 -19.22897,-3.44732 -4.00381,-1.92438 -19.72429,-15.51196 -34.93517,-30.1942 -23.97117,-23.13864 -29.24523,-27.07809 -39.58839,-29.57211 -20.57311,-4.96023 -45.79428,-6.09903 -60.97377,-2.753 -13.4747,2.97032 -15.73637,4.598 -40.30415,29.00295 -45.73788,45.43441 -41.90527,44.33492 -102.94379,29.53242 -23.63992,-5.73365 -46.46001,-11.67932 -50.71087,-13.21336 -6.47598,-2.33672 -8.17086,-2.11193 -10.45436,1.38746 -2.28551,3.50214 -2.9123,2.02135 -3.88306,-9.16946 -0.92111,-10.61962 -0.10288,-15.68518 4.0042,-24.7957 l 5.16205,-11.44979 -5.42659,-7.06864 c -4.90069,-6.38464 -5.42658,-9.39347 -5.42658,-31.07078 0,-23.5894 -0.10207,-24.04586 -5.95289,-26.53831 -18.1732,-7.74192 -24.1928,-7.6255 -80.42914,1.55222 -71.71494,11.70407 -75.96263,10.97556 -95.55505,-16.3953 -6.08196,-8.49618 -11.79532,-15.44751 -12.69616,-15.44751 -0.90166,0 -1.17533,28.66557 -0.60854,63.70163 l 1.03036,63.70222 17.919,23.47318 c 9.85499,12.91024 19.53323,24.16739 21.50653,25.01576 6.62693,2.84948 20.45197,1.58483 69.08545,-6.3195 53.66922,-8.72254 66.0818,-8.63559 86.88887,0.60972 l 13.51601,6.00569 1.13123,50.68577 1.13123,50.68545 41.85087,10.54583 c 23.01788,5.80064 47.17297,10.64809 53.67756,10.77287 l 11.82631,0.22676 z M 274.74228,464.12255 c 52.8057,-8.55964 63.77365,-9.12329 78.81771,-4.05016 l 10.53937,3.5541 v -14.86253 -14.86253 l -11.72146,-3.90054 c -15.94847,-5.30666 -21.45449,-5.03619 -75.37355,3.70433 -25.80149,4.18212 -51.40478,7.60409 -56.8961,7.60409 -14.1845,0 -23.72809,-5.29635 -33.75031,-18.73095 -9.69373,-12.99406 -9.77198,-13.0365 -15.48415,-8.35588 -3.75237,3.07389 -2.81736,4.97409 12.16076,24.71385 22.61076,29.79935 25.90754,32.7907 36.14147,32.7907 4.75967,0 29.76438,-3.42187 55.56626,-7.60448 z m 727.44482,-2.69543 c 4.5567,-5.10554 29.2655,-46.68275 29.2655,-49.24475 0,-0.70974 -1.7815,-1.27615 -3.9589,-1.25905 -2.177,0.0197 -6.1527,3.82823 -8.8339,8.46867 -6.0517,10.4738 -17.6448,16.85854 -30.53131,16.81403 -5.4107,-0.0197 -27.6425,-2.8706 -49.4041,-6.33738 -42.56775,-6.78106 -70.42754,-7.72277 -84.85554,-2.86854 l -9.04906,3.04411 -0.68716,14.83552 c -0.67048,14.47407 -0.56005,14.79023 4.52453,12.96547 13.51879,-4.85108 51.05802,-3.94701 88.91343,2.14131 49.7079,7.99453 58.591,8.1927 64.61651,1.44061 z M 492.17495,390.07611 c 3.58953,-3.0835 18.39605,-17.38161 32.90348,-31.77344 25.7292,-25.5239 26.78576,-26.2642 42.9821,-30.13173 19.42995,-4.63984 46.35711,-3.53475 71.67123,2.94076 15.85434,4.05548 17.75892,5.36944 41.94896,28.93899 32.17222,31.34656 35.24617,33.5315 47.09154,33.46881 9.29653,-0.0501 76.40233,-15.33923 91.68551,-20.89053 l 7.30852,-2.65485 -5.4798,-12.1172 -5.47981,-12.11701 -40.24895,9.76289 c -44.17291,10.71491 -53.54569,11.58441 -65.343,6.06091 -4.34897,-2.03569 -20.14374,-15.43847 -35.09922,-29.78343 -17.00305,-16.30914 -30.7546,-27.42175 -36.69873,-29.6568 -12.10276,-4.55074 -70.74338,-5.38761 -77.38421,-1.1046 -2.49444,1.60861 -16.23763,14.55473 -30.54011,28.76903 -14.30248,14.21391 -29.05855,28.00711 -32.79107,30.65126 -10.06154,7.12749 -27.22029,6.12133 -68.99766,-4.04545 -20.05079,-4.87928 -37.39464,-8.87149 -38.54177,-8.87149 -2.15959,0 -11.22693,18.19618 -11.22693,22.5297 0,1.34924 9.41649,4.84981 20.92544,7.77877 81.06588,20.63145 81.4881,20.68834 91.31448,12.24541 z m 27.67868,-70.48957 c 18.71738,-18.47039 33.99696,-31.52124 38.79637,-33.1382 20.91153,-7.04565 69.39327,-5.12235 91.67753,3.63635 4.11304,1.61666 19.34099,14.34576 33.83968,28.28722 29.92366,28.77296 33.5807,31.46111 43.01783,31.61889 9.13487,0.15288 94.27128,-20.18864 97.84055,-23.37658 2.09009,-1.86682 2.82769,-15.52857 2.82769,-52.35568 v -49.82982 l 7.35222,-3.30438 c 26.41517,-11.87275 46.78133,-13.08229 92.32179,-5.48252 39.4207,6.57838 61.4652,8.71458 68.7607,6.66268 4.33211,-1.21827 9.87081,-8.38378 20.40531,-26.39929 l 14.4593,-24.7275 0.072,-60.74702 c 0.068,-57.727758 -0.118,-60.431439 -3.7341,-54.409539 -2.0928,3.485043 -7.911,11.040695 -12.929,16.790162 -13.1438,15.058736 -18.41501,15.453199 -79.58107,5.952934 -59.638,-9.262805 -70.75331,-8.58283 -98.94596,6.051767 -25.19139,13.077084 -24.97254,11.79053 -8.38456,49.335336 16.14272,36.53698 17.01021,44.24983 5.79917,51.55682 -10.53024,6.8629 -100.0053,27.65529 -110.89303,25.76932 -13.73287,-2.37888 -20.36497,-7.13535 -48.18108,-34.55503 -22.05387,-21.73931 -27.46376,-25.82533 -37.73861,-28.5013 -21.32024,-5.55327 -43.01466,-6.87155 -60.06338,-3.64912 l -16.19872,3.0613 -29.59953,29.21506 c -30.86147,30.45988 -39.07045,36.12985 -52.3108,36.12985 -9.51697,0 -99.1378,-21.64389 -105.555,-25.49206 -2.47538,-1.48423 -5.52271,-5.71095 -6.77191,-9.39259 -1.96139,-5.78041 -0.33047,-11.15309 11.95937,-39.39816 l 14.23098,-32.70442 -6.76119,-6.204352 C 373.24853,88.684328 360.8141,81.633967 346.68321,77.93995 333.41029,74.47082 329.89228,74.739715 275.40242,83.39005 204.3965,94.662219 203.33915,94.495783 183.99221,69.004898 176.98515,59.772744 170.49765,51.890224 169.57573,51.488287 c -0.9219,-0.401926 -1.26309,28.021065 -0.75785,63.161553 l 0.91833,63.89243 19.01091,24.60027 c 12.93013,16.73141 20.95402,25.01625 25.08573,25.90127 3.34127,0.71573 30.62869,-2.70093 60.63893,-7.59181 49.34805,-8.04286 56.0584,-8.61525 70.19802,-5.98663 8.59904,1.59839 20.05118,5.09533 25.44997,7.7713 l 9.81566,4.86533 v 49.65033 c 0,43.62075 0.44925,49.84377 3.69954,51.24115 11.29684,4.85737 80.85935,20.55992 92.10574,20.7912 l 13.23478,0.27244 z M 277.78366,265.19803 c 54.56292,-8.8148 63.37247,-9.06946 82.35678,-2.3777 3.43978,1.21228 3.95892,-0.42306 3.95892,-12.46902 0,-13.30669 -0.28996,-13.97714 -7.21043,-16.68052 -15.41303,-6.02033 -30.09603,-5.61044 -77.32501,2.1588 -70.77396,11.64237 -77.84576,10.87545 -93.04829,-10.09654 -9.39503,-12.96066 -12.53293,-14.74689 -16.48867,-9.38621 -1.72505,2.33752 2.66761,9.81162 16.75678,28.50956 10.50204,13.93744 20.84599,26.11918 22.98691,27.07062 6.51333,2.89516 11.49465,2.40225 68.01301,-6.72899 z m 723.74304,-1.83508 c 7.1792,-6.55745 29.9441,-48.64348 27.6824,-51.17719 -1.2129,-1.35975 -2.5353,-1.97724 -2.9381,-1.37321 -11.8,17.69541 -16.4799,22.73229 -23.5544,25.34833 -9.75291,3.60658 -31.26231,2.10319 -74.96413,-5.23877 -36.19027,-6.07997 -56.59338,-6.40999 -72.34207,-1.16973 l -11.72145,3.90053 v 14.11418 c 0,12.43729 0.47029,13.90089 3.95892,12.31694 2.17747,-0.98867 11.29724,-2.98939 20.26648,-4.44631 13.96127,-2.26765 22.91144,-1.66039 62.21065,4.2226 25.24699,3.7794 47.43039,7.28714 49.29679,7.79479 5.8175,1.58208 18.3342,-0.84847 22.10491,-4.29216 z M 489.23566,195.01351 c 2.71766,-1.6258 17.66598,-15.68477 33.21884,-31.2428 30.53974,-30.54968 33.73563,-32.34535 63.34192,-35.59607 14.69649,-1.61392 53.93374,3.50597 65.88358,8.59658 3.19312,1.36044 18.7138,14.99478 34.49071,30.29825 19.76916,19.17572 31.02151,28.31572 36.20144,29.4045 4.99086,1.04948 23.22442,-2.22512 54.27574,-9.74658 25.71768,-6.22931 47.74258,-12.00696 48.94371,-12.83883 1.21625,-0.84238 -4.372,-16.17326 -12.61118,-34.59669 -16.90177,-37.79259 -17.23463,-42.832699 -3.65665,-55.373154 11.36873,-10.500528 37.22267,-22.099268 56.87466,-25.515544 14.64526,-2.545991 22.14285,-1.96771 70.74416,5.455993 48.6216,7.427341 54.9896,7.918191 60.2974,4.646833 8.47501,-5.22247 35.46821,-50.785481 31.54451,-53.245804 -1.6432,-1.030323 -22.3296,-8.3499837 -45.96931,-16.2662042 -23.6404,-7.9162207 -46.6408,-17.0427548 -51.11211,-20.2811008 -10.2375,-7.414272 -15.62318,-19.9504 -15.62318,-36.365547 0,-20.522694 2.73755,-22.513489 61.86269,-44.979642 28.42581,-10.80106 52.18291,-21.09822 52.79391,-22.88211 1.8231,-5.32287 -34.82471,-51.03021 -43.48221,-54.23162 -6.0646,-2.2426 -16.2961,-1.25275 -53.47582,5.17482 -69.52078,12.01777 -89.40831,9.79138 -119.99291,-13.43304 -5.87066,-4.45779 -12.42888,-11.75642 -14.57377,-16.21904 l -3.89933,-8.11321 13.91321,-31.81785 c 12.87215,-29.43633 13.6022,-32.00462 9.75172,-34.31354 -9.33109,-5.5959 -89.60058,-23.25183 -101.21319,-22.26286 -11.32067,0.96362 -12.53017,1.86681 -38.97234,29.09786 -34.29009,35.31243 -38.19222,37.069 -82.81554,37.27434 -39.56535,0.18225 -42.33983,-1.09713 -79.00202,-36.42479 -14.83392,-14.29447 -29.40689,-27.02719 -32.38393,-28.29547 -9.08441,-3.87038 -18.19585,-2.70221 -61.14457,7.83919 -37.58212,9.22429 -51.44886,14.17147 -49.65986,17.71762 0.35748,0.70827 6.60667,14.64964 13.88699,30.98108 12.23584,27.44621 13.02945,30.25679 10.48576,37.13757 -3.87114,10.47146 -10.14099,16.32064 -28.9227,26.9816 -26.9788,15.3137 -37.24688,16.12287 -96.08134,7.57266 -57.22696,-8.31619 -68.1679,-8.64189 -74.50527,-2.21598 -7.91506,8.02665 -34.01168,48.89843 -32.71838,51.24351 2.04004,3.69834 11.46406,7.19685 55.32437,20.53811 43.64781,13.276535 53.66327,18.777334 60.27589,33.104913 1.86487,4.041129 3.39093,10.871417 3.39093,15.178699 0,10.068241 -7.26881,26.017595 -14.16426,31.079912 -2.95717,2.171179 -26.31626,11.48625 -51.91039,20.700522 -25.59376,9.2144669 -47.60435,18.198738 -48.91233,19.964645 -1.7759,2.397541 2.52858,9.756107 16.99828,29.059346 15.69268,20.934944 20.82811,26.154263 27.01336,27.454671 4.46375,0.938265 30.6982,-2.099261 63.13137,-7.309735 51.5299,-8.278076 56.51042,-8.676862 69.7182,-5.580289 22.91263,5.371702 50.59488,23.017895 59.20385,37.740236 3.44612,5.8933 2.99887,7.45032 -11.37549,39.59268 -8.22964,18.40212 -14.38668,34.10389 -13.68204,34.8935 2.18779,2.45158 85.59676,22.77955 94.71932,23.085 4.74776,0.15896 10.85594,-1.04143 13.5736,-2.66714 z M 559.78123,71.159369 C 456.71747,58.081899 385.35923,4.4197262 389.58786,-56.826492 c 2.37685,-34.42152 24.77511,-63.696628 66.09054,-86.381268 100.55581,-55.21036 256.9027,-41.47787 324.49228,28.5017 28.98984,30.014226 35.87178,61.430539 20.91472,95.473212 -17.6497,40.171864 -71.2089,73.641364 -138.28651,86.416921 -26.40642,5.029011 -78.78235,7.049964 -103.01766,3.975296 z M 661.03611,52.172685 c 36.99586,-7.347462 68.29502,-20.298977 92.53312,-38.290415 18.29039,-13.57627844 27.90349,-25.441178 35.32085,-43.595704 22.6056,-55.326395 -39.11255,-111.941706 -140.28364,-128.684526 -33.54374,-5.55138 -90.0192,-3.6721 -122.75862,4.08447 -58.65174,13.89567 -106.84076,47.15345 -118.60868,81.858618 -4.11819,12.144512 -2.85232,32.27549 2.89838,46.095029 16.16496,38.846797 78.55794,73.528573 147.72801,82.116025 25.96195,3.223015 77.99986,1.415747 103.17058,-3.583497 z M 216.01349,-16.222043 c 49.08311,-17.671246 53.07302,-20.401946 53.07302,-36.321827 0,-11.733345 -7.61278,-20.017797 -23.31024,-25.366998 -25.87059,-8.815386 -78.46539,-24.099032 -79.2296,-23.023012 -1.25914,1.774352 1.18445,101.18937236 2.48767,101.18937236 0.66612,0 21.80682,-7.41496116 46.97915,-16.47753536 z m 812.13191,-38.038118 c 1.8574,-27.597224 2.9981,-50.602059 2.5349,-51.121209 -0.4635,-0.51913 -22.5539,7.442772 -49.08931,17.693761 -36.3346,14.035981 -48.74793,19.896365 -50.27673,23.7353 -3.17088,7.962299 1.89148,24.889514 9.00533,30.112368 5.2208,3.832942 82.09061,31.5481616 83.83161,30.2250578 0.3391,-0.2574089 2.1365,-23.0480548 3.9942,-50.6452778 z M 382.16493,-206.2863 c 2.51667,-3.39809 2.1584,-6.02161 -2.26961,-16.61459 -2.89204,-6.91851 -6.10223,-12.57935 -7.13376,-12.57935 -1.03154,0 -1.87559,8.59501 -1.87559,19.10025 0,17.73187 0.2971,18.92194 4.1452,16.61459 2.27954,-1.36721 5.48974,-4.30128 7.13376,-6.5209 z m 438.80681,-10.81659 -0.0945,-14.57497 -4.33507,8.87188 c -2.384,4.87918 -4.37717,9.64568 -4.42922,10.59181 -0.10168,1.83988 6.36637,9.68615 7.98418,9.68615 0.53345,0 0.92707,-6.55854 0.87464,-14.57487 z"
           id="path1855" />
      </g>
    </g>
  </g>
</svg>
